# xmcd CD database file generated by OrangeCD 5.2
#
# Track frame offsets:
#	150
#	23009
#	40638
#	58724
#	76670
#
# Disc length: 1419 seconds
#
# Revision: 0
# Processed by: cddbd v1.5.1PL0 Copyright (c) Steve Scherf et al.
# Submitted via: OrangeCD 5.2
#
DISCID=2b058905
DTITLE=Blind Dog - Can't See The Moon To Howl
DYEAR=2000
DGENRE=Blues
TTITLE0=Cambrian Blues
TTITLE1=Shame Shame Shame
TTITLE2=Sweet Home Chicago
TTITLE3=Stop Breakin Down
TTITLE4=Road House Blues
EXTD=
EXTT0=
EXTT1=
EXTT2=
EXTT3=
EXTT4=
PLAYORDER=
